<?xml version="1.0" encoding="utf-8"?>
<!-- Generator: Adobe Illustrator 19.0.0, SVG Export Plug-In . SVG Version: 6.00 Build 0)  -->
<svg version="1.1" id="Layer_1" xmlns="http://www.w3.org/2000/svg" xmlns:xlink="http://www.w3.org/1999/xlink" x="0px" y="0px"
	 viewBox="0 0 511.98 511.98" style="enable-background:new 0 0 511.98 511.98;" xml:space="preserve">
<g>
	<g>
		<path d="M183.015,231.245c-20.413,0-37.012,16.604-37.012,37.012c0,20.408,16.6,37.012,37.012,37.012
			c20.413,0,37.012-16.604,37.012-37.012C220.028,247.849,203.428,231.245,183.015,231.245z M183.015,286.763
			c-10.202,0-18.506-8.3-18.506-18.506c0-10.207,8.304-18.506,18.506-18.506c10.202,0,18.506,8.3,18.506,18.506
			C201.522,278.464,193.217,286.763,183.015,286.763z"/>
	</g>
</g>
<g>
	<g>
		<path d="M331.065,231.245c-20.413,0-37.012,16.604-37.012,37.012c0,20.408,16.6,37.012,37.012,37.012
			c20.413,0,37.012-16.604,37.012-37.012C368.077,247.849,351.478,231.245,331.065,231.245z M331.065,286.763
			c-10.202,0-18.506-8.3-18.506-18.506c0-10.207,8.304-18.506,18.506-18.506c10.202,0,18.506,8.3,18.506,18.506
			C349.571,278.464,341.267,286.763,331.065,286.763z"/>
	</g>
</g>
<g>
	<g>
		<path d="M349.571,74.025H164.509c-5.114,0-8.18,4.061-8.18,9.171v120.29c0,5.11,3.066,9.335,8.18,9.335h185.062
			c5.115,0,10.326-4.226,10.326-9.335V83.195C359.897,78.085,354.686,74.025,349.571,74.025z M341.391,194.315H174.835V92.531
			h166.556V194.315z"/>
	</g>
</g>
<g>
	<g>
		
			<rect x="76.851" y="453.301" transform="matrix(0.4472 -0.8944 0.8944 0.4472 -343.2493 369.7193)" width="101.267" height="18.506"/>
	</g>
</g>
<g>
	<g>
		
			<rect x="363.447" y="413.782" transform="matrix(0.9363 -0.3511 0.3511 0.9363 -138.6851 160.3095)" width="18.501" height="97.57"/>
	</g>
</g>
<g>
	<g>
		<rect x="193.341" y="425.642" width="129.543" height="18.506"/>
	</g>
</g>
<g>
	<g>
		<rect x="165.582" y="471.908" width="185.062" height="18.506"/>
	</g>
</g>
<g>
	<g>
		<path d="M303.396,0h-92.712c-61.175,0-109.874,49.761-109.874,111.027v184.922c0,61.265,48.699,111.187,109.874,111.187h92.712
			c61.175,0,112.02-49.922,112.02-111.187V111.027C415.416,49.761,364.571,0,303.396,0z M396.91,295.949
			c0,51.059-42.54,92.681-93.514,92.681h-92.712c-50.973,0-91.368-41.622-91.368-92.681V111.027
			c0-51.064,40.394-92.521,91.368-92.521h92.712c50.973,0,93.514,41.457,93.514,92.521V295.949z"/>
	</g>
</g>
</svg>
